<svg viewBox="67 210 367 86" version="1.1" xmlns="http://www.w3.org/2000/svg" desc="Created with imagetracer.js version 1.2.6">
  <path fill="#fff" opacity="1" d="M 422.5 210 L 434 210.5 L 429 214 Q 430.1 216.7 427.5 216 Q 420.1 223.6 409.5 228 Q 402.8 230.3 392.5 229 L 387 226.5 Q 388.8 218.3 394.5 214 L 399.5 212 L 413.5 212 L 422.5 210 Z " />
  <path fill="#fff" opacity="1" d="M 242.5 215 L 244.5 216 L 246.5 215 L 247.5 216 L 259.5 216 L 264.5 215 L 273.5 217 L 284.5 217 Q 288.5 220 296.5 219 L 300.5 221 L 307.5 221 L 320.5 225 L 326.5 225 L 329.5 227 L 334.5 227 L 346.5 231 L 384.5 238 L 392 242.5 Q 390.8 245.3 385.5 244 L 384.5 243 L 349.5 243 L 348.5 244 L 311.5 245 L 309.5 246 L 307.5 246 L 299.5 246 L 298.5 247 L 270.5 247 L 269.5 248 L 252.5 248 L 251.5 249 L 205.5 249 L 204.5 250 L 203.5 249 L 188.5 249 L 180.5 251 Q 179.3 248.7 178 251.5 L 185.5 253 L 187.5 253 Q 193.3 254.3 196 258.5 L 197 260.5 L 197 273.5 L 196 277 L 158.5 277 Q 157.4 277.1 158 282.5 L 161.5 286 L 172.5 288 L 179.5 286 L 186.5 286 L 192 284 L 189 294 L 179.5 296 L 157.5 296 Q 156.1 293.4 151.5 294 L 145 287.5 L 144 275.5 L 147 265.5 L 154.5 257 L 165.5 252 L 168.5 253 L 175 251.5 L 174 249 L 147.5 249 L 144 252.5 L 138 279.5 Q 135.5 287.5 129.5 292 L 117.5 296 L 103.5 296 L 97 293 L 96 289.5 L 97.5 288 L 107.5 288 L 114.5 286 L 120 281.5 L 124 271.5 L 128 251.5 L 125.5 250 L 114.5 253 L 99 263 L 99 265 L 97 265 Q 98.1 267.7 95.5 267 Q 90.3 269.3 90 276.5 L 91 277.5 L 91 294 L 68.5 294 L 67 292.5 L 69.5 290 L 82 287 L 81 283 L 79 283 L 79 281 L 77 281 L 77 279 Q 74.3 280.1 75 277.5 Q 71.8 276.3 73 270.5 L 87.5 259 L 106.5 249 Q 111.1 249.6 112.5 247 L 117.5 247 L 121.5 245 L 150.5 243 L 151.5 244 L 172.5 245 L 181.5 247 L 196.5 247 L 197.5 246 L 210.5 246 L 211.5 245 L 235.5 245 L 243.5 243 L 256.5 243 L 268.5 240 Q 269.8 242.3 274.5 241 L 283.5 239 L 293.5 239 L 294.5 238 L 336 234.5 L 332.5 232 Q 325.8 232.7 322.5 230 L 316.5 230 L 310.5 228 L 283.5 225 L 282.5 224 L 272.5 224 L 271.5 223 L 230.5 223 L 229.5 224 L 217.5 224 L 208.5 226 L 172.5 242 L 172 240.5 L 197.5 227 L 216.5 219 Q 222.2 219.7 224.5 217 L 241.5 216 L 242.5 215 Z M 170 261 L 166 263 L 160 270 L 183 270 Q 185 269 184 266 Q 181 259 170 261 Z " />
  <path fill="#fff" opacity="1" d="M 411.5 232 L 412 233.5 L 410 244 L 398 245 L 396 237.5 L 397.5 236 L 404.5 235 L 411.5 232 Z " />
  <path fill="#fff" opacity="1" d="M 263.5 251 L 275.5 253 L 283 258.5 L 285 264.5 L 285 266.5 Q 284.8 273.3 281.5 277 L 246.5 277 L 245 278.5 Q 244.3 284.7 248.5 286 Q 255.2 288.3 265.5 287 Q 267.3 284.2 273.5 286 L 277.5 284 Q 280.3 285.3 278 286.5 L 274.5 294 L 266.5 296 L 245.5 296 Q 244.1 293.4 239.5 294 L 233 288.5 L 231 282.5 L 231 277.5 L 233 268.5 L 237 261 L 239 261 Q 237.9 258.3 240.5 259 L 243.5 256 L 250.5 253 L 262.5 252 L 263.5 251 Z M 257 261 L 253 263 L 248 269 L 248 270 L 270 270 L 271 269 L 270 265 Q 267 259 257 261 Z " />
  <path fill="#fff" opacity="1" d="M 321.5 251 L 326.5 251 Q 327.9 253.6 332.5 253 L 338 258.5 Q 337.3 260.8 339.5 260 L 348.5 253 L 355.5 251 L 365.5 251 L 373.5 254 L 376 256.5 Q 380 260 378 269.5 L 376 273.5 L 372 293.5 L 370.5 295 L 357 294.5 L 362 276.5 L 363 265.5 L 359.5 261 Q 347 259 343 265.5 Q 343.7 268.1 341 267 L 341 269.5 L 339 272.5 L 339 277.5 L 337 280.5 L 337 284.5 L 334 295 L 320.5 295 L 320 291.5 L 325 272.5 L 325 265.5 L 318.5 261 L 315.5 261 L 306 265 L 303 271.5 L 298 295 L 284 295 L 284 290.5 L 286 286.5 L 288 272.5 L 290 269.5 Q 289.2 263.2 292 260.5 L 292 253 L 304.5 253 L 305 257 L 306.5 257 L 313.5 253 L 321.5 251 Z " />
  <path fill="#fff" opacity="1" d="M 393.5 251 L 407.5 251 L 408 254.5 L 406 258.5 L 405 271.5 L 410.5 279 L 417 281.5 L 412.5 287 L 395.5 294 L 382.5 295 Q 379.8 293.8 382 292.5 L 383 284.5 L 385 280.5 L 385 275.5 L 389 264.5 L 389 259.5 Q 391.6 258.1 391 253.5 L 393.5 251 Z " />
  <path fill="#fff" opacity="1" d="M 227.5 253 L 234.5 253 L 235 254.5 L 232 265 L 224.5 266 L 218 269 Q 219 272 216 271 L 216 273.5 L 214 275.5 L 214 279.5 L 212 282.5 L 212 287.5 L 210 295 L 196.5 295 L 196 292.5 L 198 287.5 L 198 282.5 L 200 278.5 L 202 265.5 L 204 261.5 L 204 254 L 216.5 254 L 217 257.5 L 216 260.5 L 221.5 256 L 227.5 253 Z " />
  <path fill="rgb(0,0,0)" stroke="rgb(0,0,0)" stroke-width="1" opacity="0" d="M 0 0 L 500 0 L 500 500 L 0 500 L 0 0 Z M 423 210 L 414 212 L 400 212 L 395 214 Q 389 218 387 227 L 393 229 Q 403 230 410 228 Q 420 224 428 216 Q 430 217 429 214 L 434 211 L 423 210 Z M 243 215 L 242 216 L 225 217 Q 222 220 217 219 L 198 227 L 172 241 L 173 242 L 209 226 L 218 224 L 230 224 L 231 223 L 272 223 L 273 224 L 283 224 L 284 225 L 311 228 L 317 230 L 323 230 Q 326 233 333 232 L 336 235 L 295 238 L 294 239 L 284 239 L 275 241 Q 270 242 269 240 L 257 243 L 244 243 L 236 245 L 212 245 L 211 246 L 198 246 L 197 247 L 182 247 L 173 245 L 152 244 L 151 243 L 122 245 L 118 247 L 113 247 Q 111 250 107 249 L 88 259 L 73 271 Q 72 276 75 278 Q 74 280 77 279 L 77 281 L 79 281 L 79 283 L 81 283 L 82 287 L 70 290 L 67 293 L 69 294 L 91 294 L 91 278 L 90 277 Q 90 269 96 267 Q 98 268 97 265 L 99 265 L 99 263 L 115 253 L 126 250 L 128 252 L 124 272 L 120 282 L 115 286 L 108 288 L 98 288 L 96 290 L 97 293 L 104 296 L 118 296 L 130 292 Q 136 288 138 280 L 144 253 L 148 249 L 174 249 L 175 252 L 169 253 L 166 252 L 155 257 L 147 266 L 144 276 L 145 288 L 152 294 Q 156 293 158 296 L 180 296 L 189 294 L 192 284 L 187 286 L 180 286 L 173 288 L 162 286 L 158 283 Q 157 277 159 277 L 196 277 L 197 274 L 197 261 L 196 259 Q 193 254 188 253 L 186 253 L 178 252 Q 179 249 181 251 L 189 249 L 204 249 L 205 250 L 206 249 L 252 249 L 253 248 L 270 248 L 271 247 L 299 247 L 300 246 L 308 246 L 310 246 L 312 245 L 349 244 L 350 243 L 385 243 L 386 244 Q 391 245 392 243 L 385 238 L 347 231 L 335 227 L 330 227 L 327 225 L 321 225 L 308 221 L 301 221 L 297 219 Q 289 220 285 217 L 274 217 L 265 215 L 260 216 L 248 216 L 247 215 L 245 216 L 243 215 Z M 412 232 L 405 235 L 398 236 L 396 238 L 398 245 L 410 244 L 412 234 L 412 232 Z M 264 251 L 263 252 L 251 253 L 244 256 L 241 259 Q 238 258 239 261 L 237 261 L 233 269 L 231 278 L 231 283 L 233 289 L 240 294 Q 244 293 246 296 L 267 296 L 275 294 L 278 287 Q 280 285 278 284 L 274 286 Q 267 284 266 287 Q 255 288 249 286 Q 244 285 245 279 L 247 277 L 282 277 Q 285 273 285 267 L 285 265 L 283 259 L 276 253 L 264 251 Z M 322 251 L 314 253 L 305 258 L 305 257 L 305 253 L 292 253 L 292 261 Q 289 263 290 270 L 288 273 L 286 287 L 284 291 L 284 295 L 298 295 L 303 272 L 306 265 L 316 261 L 319 261 L 325 266 L 325 273 L 320 292 L 321 295 L 334 295 L 337 285 L 337 281 L 339 278 L 339 273 L 341 270 L 341 267 Q 344 268 343 266 Q 347 259 360 261 L 363 266 L 362 277 L 357 295 L 371 295 L 372 294 L 376 274 L 378 270 Q 380 260 376 257 L 374 254 L 366 251 L 356 251 L 349 253 L 340 260 Q 337 261 338 259 L 333 253 Q 328 254 327 251 L 322 251 Z M 394 251 L 391 254 Q 392 258 389 260 L 389 265 L 385 276 L 385 281 L 383 285 L 382 293 Q 380 294 383 295 L 396 294 L 413 287 L 417 282 L 411 279 L 405 272 L 406 259 L 408 255 L 408 251 L 394 251 Z M 228 253 L 222 256 L 216 261 L 217 258 L 217 254 L 204 254 L 204 262 L 202 266 L 200 279 L 198 283 L 198 288 L 196 293 L 197 295 L 210 295 L 212 288 L 212 283 L 214 280 L 214 276 L 216 274 L 216 271 Q 219 272 218 269 L 225 266 L 232 265 L 235 255 L 235 253 L 228 253 Z " />
  <path fill="rgb(0,0,0)" stroke="rgb(0,0,0)" stroke-width="1" opacity="0" d="M 169.5 261 Q 180.6 259.4 184 265.5 Q 184.8 269.3 182.5 270 L 160 269.5 L 165.5 263 L 169.5 261 Z " />
  <path fill="rgb(0,0,0)" stroke="rgb(0,0,0)" stroke-width="1" opacity="0" d="M 256.5 261 Q 266.6 259.4 270 264.5 L 271 268.5 L 269.5 270 L 247.5 270 L 248 268.5 L 252.5 263 L 256.5 261 Z " />
</svg>